<!--?xml version="1.0" encoding="utf-8"?-->
<!-- Generator: Adobe Illustrator 18.1.1, SVG Export Plug-In . SVG Version: 6.00 Build 0)  -->

<svg version="1.1" id="_x32_" xmlns="http://www.w3.org/2000/svg" xmlns:xlink="http://www.w3.org/1999/xlink" x="0px" y="0px" viewBox="0 0 512 512" style="width: 20px; height: 20px; opacity: 1;" xml:space="preserve">
<style type="text/css">
	.st0{fill:#4B4B4B;}
</style>
<g>
	<path class="st0" d="M225.161,66.903L220.05,96.73c-0.411,2.37,0.566,4.765,2.513,6.174c1.946,1.418,4.528,1.604,6.658,0.488
		l26.78-14.083l26.777,14.083c2.13,1.116,4.712,0.929,6.662-0.488c1.942-1.409,2.92-3.804,2.509-6.174l-5.111-29.827l21.666-21.111
		c1.722-1.686,2.337-4.203,1.601-6.484c-0.746-2.288-2.725-3.958-5.104-4.309l-29.945-4.349l-13.39-27.131
		C260.6,1.369,258.405,0,256.002,0c-2.406,0-4.602,1.369-5.668,3.519l-13.39,27.131l-29.945,4.349
		c-2.378,0.35-4.358,2.02-5.103,4.309c-0.737,2.281-0.122,4.798,1.6,6.484L225.161,66.903z" style="fill: rgb(243, 237, 248);"></path>
	<path class="st0" d="M357.618,337.625c43.983-19.385,54.604-53.977,54.604-91.354c-24.272,6.924-68.246,13.846-97.072-13.838
		c34.886-15.223,56.12-41.523,54.604-62.276c-53.084,6.924-74.314-1.376-113.756-62.284c-39.43,60.908-60.668,69.208-113.752,62.284
		c-1.52,20.754,19.718,47.054,54.604,62.276c-28.826,27.684-72.8,20.762-97.08,13.838c0,37.377,10.625,71.969,54.604,91.354
		c-43.979,15.215-89.48,0-89.48,0S81.02,441.514,210.501,457.51V512h47.004h47.021v-54.929
		c126.654-17.252,142.582-119.446,142.582-119.446S401.601,352.84,357.618,337.625z M142.091,286.369
		c0-7.672,6.223-13.895,13.899-13.895c7.677,0,13.9,6.223,13.9,13.895c0,7.681-6.223,13.904-13.9,13.904
		C148.313,300.272,142.091,294.05,142.091,286.369z M175.448,411.826c-9.403,0-17.023-7.616-17.023-17.031
		c0-9.4,7.62-17.023,17.023-17.023c9.408,0,17.027,7.623,17.027,17.023C192.475,404.21,184.856,411.826,175.448,411.826z
		 M222.713,322.516c-9.212,0-16.681-7.469-16.681-16.681s7.469-16.681,16.681-16.681c9.212,0,16.681,7.469,16.681,16.681
		S231.925,322.516,222.713,322.516z M239.106,196.025c0-10.141,8.222-18.359,18.354-18.359c10.137,0,18.354,8.218,18.354,18.359
		c0,10.124-8.218,18.358-18.354,18.358C247.328,214.383,239.106,206.149,239.106,196.025z M253.909,361.449
		c0-8.112,6.572-14.686,14.681-14.686c8.109,0,14.682,6.573,14.682,14.686c0,8.104-6.573,14.677-14.682,14.677
		C260.481,376.126,253.909,369.553,253.909,361.449z M292.218,444.845c-7.676,0-13.899-6.223-13.899-13.903
		c0-7.672,6.223-13.895,13.899-13.895c7.677,0,13.9,6.223,13.9,13.895C306.118,438.622,299.895,444.845,292.218,444.845z
		 M328.362,294.718c-7.677,0-13.9-6.223-13.9-13.904c0-7.672,6.223-13.895,13.9-13.895c7.676,0,13.899,6.223,13.899,13.895
		C342.261,288.495,336.038,294.718,328.362,294.718z M372.845,394.803c-7.677,0-13.9-6.223-13.9-13.904
		c0-7.672,6.223-13.895,13.9-13.895c7.676,0,13.899,6.223,13.899,13.895C386.745,388.58,380.522,394.803,372.845,394.803z" style="fill: rgb(243, 237, 248);"></path>
</g>
</svg>
