<svg width="1280" height="720" xmlns="http://www.w3.org/2000/svg" xmlns:xlink="http://www.w3.org/1999/xlink" overflow="hidden"><g><rect x="0" y="0" width="1280" height="720" fill="#FFFFFF"/><path d="M21.2412 185.972 235.221 185.972 235.221 224.905 21.2412 224.905Z" fill="#70AD47" fill-rule="evenodd" fill-opacity="0.2"/><path d="M235.221 185.972 629.853 185.972 629.853 224.905 235.221 224.905Z" fill="#70AD47" fill-rule="evenodd" fill-opacity="0.2"/><path d="M21.2412 263.839 235.221 263.839 235.221 302.772 21.2412 302.772Z" fill="#70AD47" fill-rule="evenodd" fill-opacity="0.2"/><path d="M235.221 263.839 629.853 263.839 629.853 302.772 235.221 302.772Z" fill="#70AD47" fill-rule="evenodd" fill-opacity="0.2"/><path d="M21.2412 341.705 235.221 341.705 235.221 380.639 21.2412 380.639Z" fill="#70AD47" fill-rule="evenodd" fill-opacity="0.2"/><path d="M235.221 341.705 629.853 341.705 629.853 380.639 235.221 380.639Z" fill="#70AD47" fill-rule="evenodd" fill-opacity="0.2"/><path d="M21.2412 185.972 629.853 185.972" stroke="#70AD47" stroke-width="1.33333" stroke-linejoin="round" stroke-miterlimit="10" fill="none" fill-rule="evenodd"/><path d="M21.2412 419.572 629.853 419.572" stroke="#70AD47" stroke-width="1.33333" stroke-linejoin="round" stroke-miterlimit="10" fill="none" fill-rule="evenodd"/><g><text font-family="PlemolJP Console NF,PlemolJP Console NF_MSFontService,sans-serif" font-weight="700" font-size="19" transform="translate(30.8412 170)">移動</text></g><text font-family="PlemolJP Console NF,PlemolJP Console NF_MSFontService,sans-serif" font-weight="400" font-size="16" transform="translate(244.821 207)">カーソルを１文字右に移動</text><g><text font-family="PlemolJP Console NF,PlemolJP Console NF_MSFontService,sans-serif" font-weight="700" font-size="19" transform="translate(30.8412 209)">Ctrl</text></g><text font-family="PlemolJP Console NF,PlemolJP Console NF_MSFontService,sans-serif" font-weight="400" font-size="19" transform="translate(70.1745 209)">+</text><text font-family="PlemolJP Console NF,PlemolJP Console NF_MSFontService,sans-serif" font-weight="700" font-size="19" transform="translate(80.0078 209)">F</text><text font-family="PlemolJP Console NF,PlemolJP Console NF_MSFontService,sans-serif" font-weight="400" font-size="19" transform="translate(99.6745 209)">,</text><text font-family="PlemolJP Console NF,PlemolJP Console NF_MSFontService,sans-serif" font-weight="700" font-size="19" transform="translate(119.341 209)">→</text><text font-family="PlemolJP Console NF,PlemolJP Console NF_MSFontService,sans-serif" font-weight="400" font-size="16" transform="translate(244.821 246)">カーソルを１文字左に移動</text><g><text font-family="PlemolJP Console NF,PlemolJP Console NF_MSFontService,sans-serif" font-weight="700" font-size="19" transform="translate(30.8412 248)">Ctrl</text></g><text font-family="PlemolJP Console NF,PlemolJP Console NF_MSFontService,sans-serif" font-weight="400" font-size="19" transform="translate(70.1745 248)">+</text><text font-family="PlemolJP Console NF,PlemolJP Console NF_MSFontService,sans-serif" font-weight="700" font-size="19" transform="translate(80.0078 248)">B</text><text font-family="PlemolJP Console NF,PlemolJP Console NF_MSFontService,sans-serif" font-weight="400" font-size="19" transform="translate(99.6745 248)">,</text><text font-family="PlemolJP Console NF,PlemolJP Console NF_MSFontService,sans-serif" font-weight="700" font-size="19" transform="translate(119.341 248)">←</text><text font-family="PlemolJP Console NF,PlemolJP Console NF_MSFontService,sans-serif" font-weight="400" font-size="16" transform="translate(244.821 285)">カーソルを行頭に移動</text><g><text font-family="PlemolJP Console NF,PlemolJP Console NF_MSFontService,sans-serif" font-weight="700" font-size="19" transform="translate(30.8412 287)">Ctrl</text></g><text font-family="PlemolJP Console NF,PlemolJP Console NF_MSFontService,sans-serif" font-weight="400" font-size="19" transform="translate(70.1745 287)">+</text><text font-family="PlemolJP Console NF,PlemolJP Console NF_MSFontService,sans-serif" font-weight="700" font-size="19" transform="translate(80.0078 287)">A</text><text font-family="PlemolJP Console NF,PlemolJP Console NF_MSFontService,sans-serif" font-weight="400" font-size="19" transform="translate(99.6745 287)">,</text><text font-family="PlemolJP Console NF,PlemolJP Console NF_MSFontService,sans-serif" font-weight="700" font-size="19" transform="translate(119.341 287)">Home</text><text font-family="PlemolJP Console NF,PlemolJP Console NF_MSFontService,sans-serif" font-weight="400" font-size="16" transform="translate(244.821 324)">カーソルを行末に移動</text><g><text font-family="PlemolJP Console NF,PlemolJP Console NF_MSFontService,sans-serif" font-weight="700" font-size="19" transform="translate(30.8412 326)">Ctrl</text></g><text font-family="PlemolJP Console NF,PlemolJP Console NF_MSFontService,sans-serif" font-weight="400" font-size="19" transform="translate(70.1745 326)">+</text><text font-family="PlemolJP Console NF,PlemolJP Console NF_MSFontService,sans-serif" font-weight="700" font-size="19" transform="translate(80.0078 326)">E</text><text font-family="PlemolJP Console NF,PlemolJP Console NF_MSFontService,sans-serif" font-weight="400" font-size="19" transform="translate(99.6745 326)">,</text><text font-family="PlemolJP Console NF,PlemolJP Console NF_MSFontService,sans-serif" font-weight="700" font-size="19" transform="translate(119.341 326)">End</text><text font-family="PlemolJP Console NF,PlemolJP Console NF_MSFontService,sans-serif" font-weight="400" font-size="16" transform="translate(244.821 363)">カーソルを１単語右に移動</text><g><text font-family="PlemolJP Console NF,PlemolJP Console NF_MSFontService,sans-serif" font-weight="700" font-size="19" transform="translate(30.8412 365)">Esc</text></g><text font-family="PlemolJP Console NF,PlemolJP Console NF_MSFontService,sans-serif" font-weight="400" font-size="19" transform="translate(60.3412 365)">+</text><text font-family="PlemolJP Console NF,PlemolJP Console NF_MSFontService,sans-serif" font-weight="700" font-size="19" transform="translate(70.1745 365)">F</text><text font-family="PlemolJP Console NF,PlemolJP Console NF_MSFontService,sans-serif" font-weight="400" font-size="19" transform="translate(89.8412 365)">,</text><text font-family="PlemolJP Console NF,PlemolJP Console NF_MSFontService,sans-serif" font-weight="700" font-size="19" transform="translate(109.508 365)">Alt</text><text font-family="PlemolJP Console NF,PlemolJP Console NF_MSFontService,sans-serif" font-weight="400" font-size="19" transform="translate(139.008 365)">+</text><text font-family="PlemolJP Console NF,PlemolJP Console NF_MSFontService,sans-serif" font-weight="700" font-size="19" transform="translate(148.841 365)">F</text><text font-family="PlemolJP Console NF,PlemolJP Console NF_MSFontService,sans-serif" font-weight="400" font-size="16" transform="translate(244.821 401)">カーソルを１単語左に移動</text><g><text font-family="PlemolJP Console NF,PlemolJP Console NF_MSFontService,sans-serif" font-weight="700" font-size="19" transform="translate(30.8412 403)">Esc</text></g><text font-family="PlemolJP Console NF,PlemolJP Console NF_MSFontService,sans-serif" font-weight="400" font-size="19" transform="translate(60.3412 403)">+</text><text font-family="PlemolJP Console NF,PlemolJP Console NF_MSFontService,sans-serif" font-weight="700" font-size="19" transform="translate(70.1745 403)">B</text><text font-family="PlemolJP Console NF,PlemolJP Console NF_MSFontService,sans-serif" font-weight="400" font-size="19" transform="translate(89.8412 403)">,</text><text font-family="PlemolJP Console NF,PlemolJP Console NF_MSFontService,sans-serif" font-weight="700" font-size="19" transform="translate(109.508 403)">Alt</text><text font-family="PlemolJP Console NF,PlemolJP Console NF_MSFontService,sans-serif" font-weight="400" font-size="19" transform="translate(139.008 403)">+</text><text font-family="PlemolJP Console NF,PlemolJP Console NF_MSFontService,sans-serif" font-weight="700" font-size="19" transform="translate(148.841 403)">B</text><g><g><g><path d="M122.9 36.3 85.7 14.2C81.3 11.6 75.8 11.6 71.3 14.2L34.1 36.3C29.7 38.9 26.9 43.8 26.9 49.1L26.9 93.3C26.9 98.6 29.6 103.4 34.1 106.1L71.3 128.2C73.5 129.5 76 130.2 78.5 130.2 81 130.2 83.5 129.5 85.7 128.2L122.9 106.1C127.3 103.5 130.1 98.6 130.1 93.3L130.1 49C130.1 43.8 127.4 38.9 122.9 36.3Z" fill="#FFFFFF"/><path d="M122.9 36.3 85.7 14.2C83.5 12.9 81 12.2 78.5 12.2 76 12.2 73.5 12.9 71.3 14.2L34.1 36.3C29.7 38.9 26.9 43.8 26.9 49.1L26.9 93.3C26.9 98.6 29.6 103.4 34.1 106.1L71.3 128.2C73.5 129.5 76 130.2 78.5 130.2 81 130.2 83.5 129.5 85.7 128.2L122.9 106.1C127.3 103.5 130.1 98.6 130.1 93.3L130.1 49C130.1 43.8 127.4 38.9 122.9 36.3ZM72.6 125.8 35.4 103.7C31.8 101.5 29.5 97.5 29.5 93.2L29.5 49C29.5 44.7 31.8 40.6 35.4 38.5L72.6 16.4C74.4 15.3 76.4 14.8 78.5 14.8 80.6 14.8 82.6 15.4 84.4 16.4L121.6 38.5C124.7 40.3 126.7 43.5 127.3 47 126.1 44.4 123.3 43.6 120 45.5L84.9 67.3C80.5 69.9 77.3 72.7 77.3 78L77.3 121.4C77.3 124.6 78.6 126.6 80.5 127.2 79.9 127.3 79.2 127.4 78.5 127.4 76.5 127.5 74.4 126.9 72.6 125.8Z" fill="#2A3238"/><path d="M113.2 97.5 103.9 103C103.7 103.1 103.5 103.3 103.5 103.6L103.5 106C103.5 106.3 103.7 106.4 103.9 106.3L113.3 100.6C113.5 100.5 113.6 100.2 113.6 99.9L113.6 97.8C113.6 97.5 113.4 97.4 113.2 97.5Z" fill="#4DA925"/><path d="M93.4 77.1C93.7 76.9 93.9 77.1 94 77.5L94 80.7C95.3 80.2 96.5 80 97.6 80.3 97.8 80.4 97.9 80.7 97.8 81L97.1 83.8C97 84 96.9 84.2 96.8 84.4 96.7 84.5 96.7 84.5 96.6 84.5 96.5 84.5 96.4 84.6 96.3 84.5 95.8 84.4 94.7 84.1 92.9 85.1 91 86.1 90.3 87.7 90.4 88.9 90.4 90.4 91.2 90.8 93.7 90.8 97.1 90.9 98.6 92.4 98.7 95.8 98.7 99.2 96.9 102.9 94.1 105.1L94.2 108.3C94.2 108.7 94 109.1 93.7 109.3L91.8 110.4C91.5 110.6 91.3 110.4 91.2 110L91.2 106.9C89.6 107.6 88 107.7 86.9 107.3 86.7 107.2 86.6 106.9 86.7 106.6L87.4 103.7C87.5 103.5 87.6 103.2 87.7 103.1 87.8 103 87.8 103 87.9 103 88 102.9 88.1 102.9 88.2 103 89.3 103.4 90.8 103.2 92.1 102.5 93.9 101.6 95 99.8 95 98 95 96.4 94.1 95.7 92 95.7 89.3 95.7 86.8 95.2 86.7 91.2 86.7 87.9 88.4 84.5 91.1 82.4L91.1 79.2C91.1 78.8 91.3 78.4 91.6 78.2L93.4 77.1Z" fill="#FFFFFF"/><path d="M178.2 72.8C177.3 71.7 176.2 70.7 174.9 69.9 174.7 69.8 174.6 69.7 174.4 69.6 175.4 68.9 176.3 68.1 177.1 67.2 177.9 66.2 178.6 65.1 179.1 63.9 179.6 62.7 179.8 61.3 179.9 59.9 179.9 57.4 179.4 55.2 178.3 53.3 177.2 51.5 175.8 49.9 174 48.8 172.3 47.7 170.3 46.8 168.1 46.3 166 45.8 163.8 45.5 161.6 45.5L146.7 45.5C145.7 45.5 144.8 46.3 144.8 47.3L144.8 94.9C144.8 95.9 145.6 96.7 146.7 96.7L162.8 96.7C165.1 96.7 167.4 96.3 169.6 95.7 171.8 95 173.8 94 175.5 92.8 177.2 91.5 178.7 89.9 179.7 87.9 180.8 85.9 181.3 83.7 181.2 81.2 181.2 79.6 180.9 78.1 180.4 76.7 179.9 75.2 179.2 74 178.2 72.8ZM169.1 62.4C168.7 63.1 168.1 63.7 167.4 64.2 166.7 64.7 165.8 65.1 164.9 65.4 163.9 65.7 162.9 65.8 161.9 65.9L154.9 65.9 154.9 54.3 161.7 54.3C162.8 54.3 163.9 54.5 164.9 54.7 165.9 54.9 166.7 55.3 167.4 55.8 168.1 56.2 168.6 56.8 169 57.5 169.4 58.2 169.6 59 169.6 60 169.7 60.9 169.5 61.7 169.1 62.4ZM155 74.5 163.2 74.5C164.4 74.5 165.4 74.7 166.4 75.1 167.3 75.4 168.2 75.9 168.8 76.4 169.5 77 170 77.6 170.4 78.5 170.8 79.3 171 80.3 170.9 81.4 170.9 82.4 170.7 83.4 170.3 84.2 169.9 85 169.3 85.7 168.6 86.3 167.9 86.9 167 87.3 166 87.7 165 88 163.9 88.2 162.8 88.2L155 88.2 155 74.5Z" fill="#2A3238"/><path d="M209.2 46.8C209 46.1 208.2 45.6 207.4 45.6L202.1 45.6C201.3 45.6 200.6 46.1 200.3 46.8L184.1 94.4C183.9 94.9 184 95.5 184.4 96 184.8 96.5 185.3 96.7 185.9 96.7L192.3 96.7C193.1 96.7 193.9 96.2 194.1 95.4L197.7 84.3 211.6 84.3 215.2 95.4C215.4 96.2 216.2 96.7 217 96.7L223.3 96.7C223.9 96.7 224.5 96.4 224.8 96 225.2 95.5 225.3 94.9 225.1 94.4L209.2 46.8ZM208.8 75.5 200.6 75.5 204.7 62.7 208.8 75.5Z" fill="#2A3238"/><path d="M263.3 74.7C262.4 73.6 261.4 72.6 260.3 71.8 259.2 71 258 70.2 256.8 69.6 255.6 69 254.3 68.4 252.9 67.9 251.6 67.4 250.3 67 249 66.6 247.9 66.3 246.7 65.9 245.5 65.5 244.4 65.1 243.3 64.6 242.3 64 241.4 63.5 240.7 62.8 240.1 62.1 239.6 61.4 239.4 60.6 239.3 59.7 239.3 58.7 239.5 57.9 239.9 57.2 240.3 56.5 240.9 55.9 241.5 55.4 242.2 54.9 243.1 54.5 244 54.2 246.2 53.6 248.6 53.7 250.4 54.3 251.4 54.7 252.2 55.2 252.9 55.8 253.6 56.4 254.2 57.2 254.6 58.1 255 59.1 255.4 60.1 255.5 61.3 255.6 62.2 256.4 62.9 257.4 62.9L263.9 62.9C264.4 62.9 264.9 62.7 265.2 62.4 265.6 62.1 265.7 61.6 265.7 61.1 265.6 58.7 265.1 56.4 264 54.4 262.9 52.4 261.5 50.7 259.8 49.3 258.1 47.9 256.1 46.8 253.9 46.1 249.7 44.7 245 44.6 240.5 45.9 238.3 46.5 236.4 47.5 234.7 48.7 233 50 231.5 51.5 230.5 53.3 229.4 55.2 228.8 57.3 228.8 59.7 228.8 62.1 229.4 64.2 230.5 66 231.6 67.7 233 69.2 234.6 70.4 236.2 71.6 238 72.6 240 73.4 241.9 74.2 243.7 74.9 245.6 75.4 246.8 75.8 248 76.2 249.3 76.6 250.5 77 251.6 77.5 252.5 78.1 253.4 78.7 254.1 79.3 254.7 80.1 255.2 80.8 255.4 81.7 255.4 82.8 255.4 83.8 255.2 84.6 254.8 85.3 254.3 86 253.8 86.6 253 87.1 252.2 87.6 251.4 88 250.4 88.2 248 88.8 245.5 88.7 243.5 88.1 242.4 87.8 241.5 87.3 240.6 86.6 239.8 86 239.1 85.2 238.6 84.2 238.1 83.3 237.7 82.1 237.5 80.9 237.4 80 236.6 79.3 235.6 79.3L229.1 79.3C228.6 79.3 228.1 79.5 227.7 79.8 227.3 80.1 227.2 80.6 227.2 81.1 227.3 83.7 227.9 86 229.1 88 230.3 90 231.8 91.7 233.7 93.1 235.5 94.5 237.7 95.5 240 96.2 242.3 96.9 244.7 97.3 247.1 97.3 249.3 97.3 251.4 97 253.6 96.4 255.8 95.8 257.8 94.9 259.5 93.8 261.3 92.6 262.8 91.1 263.9 89.3 265.1 87.4 265.7 85.2 265.7 82.8 265.7 81.2 265.5 79.7 265 78.3 264.9 77 264.2 75.8 263.3 74.7Z" fill="#2A3238"/><path d="M305.1 45.5 299.1 45.5C298.1 45.5 297.2 46.3 297.2 47.3L297.2 66 280.4 66 280.4 47.3C280.4 46.3 279.6 45.5 278.5 45.5L272.5 45.5C271.5 45.5 270.6 46.3 270.6 47.3L270.6 94.9C270.6 95.9 271.4 96.7 272.5 96.7L278.5 96.7C279.5 96.7 280.4 95.9 280.4 94.9L280.4 74.7 297.2 74.7 297.2 94.9C297.2 95.9 298 96.7 299.1 96.7L305.1 96.7C306.1 96.7 307 95.9 307 94.9L307 47.3C306.9 46.3 306.1 45.5 305.1 45.5Z" fill="#2A3238"/><path d="M150.6 105 148.3 105 148.3 111.1 147.1 111.1 147.1 105 144.8 105 144.8 104 150.6 104 150.6 105Z" fill="#2A3238"/><path d="M157.6 111.1 156.4 111.1 156.4 108 153.9 108 153.9 111.1 152.7 111.1 152.7 104 153.9 104 153.9 107 156.4 107 156.4 104 157.6 104 157.6 111.1Z" fill="#2A3238"/><path d="M164.6 107.9 161.5 107.9 161.5 110.1 165.1 110.1 165.1 111 160.3 111 160.3 104 165.1 104 165.1 105 161.6 105 161.6 107 164.7 107 164.7 107.9Z" fill="#2A3238"/><path d="M175.2 111.1 175.2 104 177.6 104C178 104 178.3 104 178.6 104.1 178.9 104.2 179.2 104.3 179.4 104.4 179.6 104.6 179.8 104.8 179.9 105 180 105.2 180.1 105.5 180.1 105.9 180.1 106.2 180 106.5 179.8 106.8 179.6 107 179.3 107.2 179 107.4 179.2 107.5 179.4 107.5 179.6 107.6 179.8 107.7 179.9 107.8 180 108 180.1 108.1 180.2 108.3 180.3 108.5 180.4 108.7 180.4 108.9 180.4 109.1 180.4 109.4 180.3 109.7 180.2 110 180.1 110.3 179.9 110.5 179.7 110.6 179.5 110.8 179.2 110.9 178.9 111 178.6 111.1 178.2 111.1 177.9 111.1L175.2 111.1ZM176.4 107 177.6 107C177.8 107 178 107 178.1 106.9 178.3 106.9 178.4 106.8 178.5 106.7 178.6 106.6 178.7 106.5 178.8 106.4 178.9 106.3 178.9 106.1 178.9 106 178.9 105.8 178.9 105.7 178.8 105.5 178.7 105.4 178.6 105.3 178.5 105.2 178.4 105.1 178.2 105.1 178.1 105 177.9 105 177.8 104.9 177.6 104.9L176.4 104.9 176.4 107ZM176.4 107.9 176.4 110.1 177.7 110.1C177.9 110.1 178.1 110.1 178.2 110 178.4 109.9 178.5 109.9 178.6 109.8 178.7 109.7 178.8 109.6 178.9 109.5 179 109.4 179 109.2 179 109 179 108.8 179 108.7 178.9 108.5 178.8 108.4 178.8 108.2 178.7 108.1 178.6 108 178.5 107.9 178.3 107.9 178.1 107.8 178 107.8 177.8 107.8L176.4 107.8Z" fill="#2A3238"/><path d="M187.7 108C187.7 108.4 187.6 108.8 187.5 109.2 187.4 109.6 187.2 109.9 187 110.2 186.8 110.5 186.5 110.7 186.2 110.9 185.9 111.1 185.5 111.2 185 111.2 184.6 111.2 184.2 111.1 183.8 110.9 183.5 110.7 183.2 110.5 183 110.2 182.8 109.9 182.6 109.6 182.5 109.2 182.4 108.8 182.3 108.4 182.3 108L182.3 107.1C182.3 106.8 182.3 106.6 182.4 106.3 182.4 106 182.5 105.8 182.6 105.6 182.7 105.4 182.8 105.1 183 105 183.1 104.8 183.3 104.6 183.5 104.5 183.7 104.4 183.9 104.2 184.2 104.2 184.4 104.1 184.7 104.1 185 104.1 185.4 104.1 185.8 104.2 186.2 104.4 186.5 104.6 186.8 104.8 187 105.1 187.2 105.4 187.4 105.7 187.5 106.1 187.6 106.5 187.7 106.9 187.7 107.3L187.7 108ZM186.5 107.1C186.5 106.8 186.5 106.6 186.4 106.3 186.4 106 186.3 105.8 186.2 105.6 186.1 105.4 185.9 105.2 185.8 105.1 185.6 105 185.4 104.9 185.1 104.9 184.8 104.9 184.6 105 184.4 105.1 184.2 105.2 184.1 105.4 184 105.6 183.9 105.8 183.8 106 183.8 106.3 183.8 106.6 183.7 106.8 183.7 107.1L183.7 108C183.7 108.3 183.7 108.5 183.8 108.8 183.8 109.1 183.9 109.3 184 109.5 184.1 109.7 184.3 109.9 184.4 110 184.6 110.1 184.8 110.2 185.1 110.2 185.4 110.2 185.6 110.1 185.8 110 186 109.9 186.1 109.7 186.2 109.5 186.3 109.3 186.4 109.1 186.4 108.8 186.4 108.5 186.5 108.3 186.5 108L186.5 107.1Z" fill="#2A3238"/><path d="M194.9 104 194.9 108.7C194.9 109.1 194.8 109.4 194.7 109.7 194.6 110 194.4 110.3 194.2 110.5 194 110.7 193.7 110.9 193.4 111 193.1 111.1 192.8 111.2 192.4 111.2 192 111.2 191.7 111.1 191.4 111 191.1 110.9 190.8 110.7 190.6 110.5 190.4 110.3 190.2 110 190.1 109.7 190 109.4 189.9 109.1 189.9 108.7L189.9 104 191.1 104 191.1 108.7C191.1 108.9 191.1 109.1 191.2 109.3 191.3 109.5 191.3 109.6 191.4 109.8 191.5 109.9 191.6 110 191.8 110.1 192 110.2 192.1 110.2 192.3 110.2 192.5 110.2 192.7 110.2 192.8 110.1 193 110 193.1 109.9 193.2 109.8 193.3 109.7 193.4 109.5 193.4 109.3 193.5 109.1 193.5 108.9 193.5 108.7L193.5 104 194.9 104Z" fill="#2A3238"/><path d="M200.1 108.3 198.9 108.3 198.9 111.1 197.7 111.1 197.7 104 200 104C200.4 104 200.7 104 201.1 104.1 201.4 104.2 201.7 104.3 201.9 104.5 202.1 104.7 202.3 104.9 202.4 105.2 202.5 105.5 202.6 105.8 202.6 106.1 202.6 106.3 202.6 106.6 202.5 106.8 202.4 107 202.3 107.2 202.2 107.3 202.1 107.5 201.9 107.6 201.8 107.7 201.6 107.8 201.5 107.9 201.3 108L202.9 111 202.9 111.1 201.6 111.1 200.1 108.3ZM198.8 107.4 199.9 107.4C200.1 107.4 200.3 107.4 200.5 107.3 200.7 107.2 200.8 107.2 200.9 107.1 201 107 201.1 106.9 201.2 106.7 201.3 106.6 201.3 106.4 201.3 106.2 201.3 106 201.3 105.8 201.2 105.7 201.1 105.5 201 105.4 200.9 105.3 200.8 105.2 200.6 105.1 200.5 105.1 200.3 105 200.1 105 199.9 105L198.8 105 198.8 107.4Z" fill="#2A3238"/><path d="M209.9 111.1 208.7 111.1 206.3 106.2 206.3 111.1 205 111.1 205 104 206.2 104 208.6 108.8 208.6 104 209.8 104 209.8 111.1Z" fill="#2A3238"/><path d="M216.9 107.9 213.8 107.9 213.8 110.1 217.4 110.1 217.4 111 212.6 111 212.6 104 217.4 104 217.4 105 213.9 105 213.9 107 217 107 217 107.9Z" fill="#2A3238"/><path d="M224.6 108.5 220.5 108.5 220.5 107.6 224.6 107.6 224.6 108.5Z" fill="#2A3238"/><path d="M231 109.4 228.7 109.4 228.2 111 226.9 111 229.3 103.9 230.4 103.9 232.8 111 231.5 111 231 109.4ZM229 108.5 230.7 108.5 229.9 105.7 229 108.5Z" fill="#2A3238"/><path d="M239.9 110.2C239.8 110.3 239.6 110.5 239.5 110.6 239.3 110.7 239.1 110.8 238.9 110.9 238.7 111 238.5 111.1 238.2 111.1 238 111.1 237.7 111.2 237.4 111.2 237 111.2 236.6 111.1 236.2 111 235.9 110.8 235.6 110.6 235.3 110.3 235.1 110 234.9 109.7 234.8 109.3 234.7 108.9 234.6 108.5 234.6 108L234.6 107.1C234.6 106.7 234.7 106.2 234.8 105.8 234.9 105.4 235.1 105.1 235.3 104.8 235.5 104.5 235.8 104.3 236.1 104.1 236.4 103.9 236.8 103.8 237.2 103.8 237.6 103.8 237.9 103.9 238.2 104 238.5 104.1 238.8 104.2 239 104.4 239.2 104.6 239.4 104.8 239.5 105.1 239.6 105.4 239.7 105.7 239.7 106L238.5 106C238.5 105.8 238.4 105.6 238.4 105.5 238.3 105.3 238.2 105.2 238.1 105.1 238 105 237.9 104.9 237.7 104.9 237.5 104.9 237.4 104.8 237.2 104.8 236.9 104.8 236.7 104.9 236.5 105 236.3 105.1 236.2 105.3 236 105.5 235.9 105.7 235.8 105.9 235.7 106.2 235.6 106.5 235.6 106.8 235.6 107L235.6 107.9C235.6 108.2 235.6 108.5 235.7 108.7 235.8 109 235.9 109.2 236 109.4 236.1 109.6 236.3 109.8 236.5 109.9 236.7 110 236.9 110.1 237.2 110.1 237.3 110.1 237.4 110.1 237.6 110.1 237.7 110.1 237.8 110.1 237.9 110 238 110 238.1 109.9 238.2 109.9 238.3 109.8 238.4 109.8 238.4 109.7L238.4 108.3 237.1 108.3 237.1 107.4 239.6 107.4 239.9 110.2Z" fill="#2A3238"/><path d="M246 109.4 243.7 109.4 243.2 111 241.9 111 244.3 103.9 245.4 103.9 247.8 111 246.5 111 246 109.4ZM244 108.5 245.7 108.5 244.9 105.7 244 108.5Z" fill="#2A3238"/><path d="M250 104 254.4 104 254.4 105 252.8 105 252.8 110.1 254.4 110.1 254.4 111.1 250 111.1 250 110.1 251.6 110.1 251.6 105 250 105 250 104Z" fill="#2A3238"/><path d="M262.1 111.1 260.9 111.1 258.5 106.2 258.5 111.1 257.3 111.1 257.3 104 258.5 104 260.9 108.8 260.9 104 262.1 104 262.1 111.1Z" fill="#2A3238"/><path d="M276.1 109.3C276.1 109.1 276.1 109 276 108.9 275.9 108.8 275.8 108.7 275.7 108.6 275.6 108.5 275.4 108.4 275.2 108.3 275 108.2 274.8 108.2 274.6 108.1 274.3 108 274 107.9 273.7 107.8 273.4 107.7 273.2 107.5 272.9 107.4 272.7 107.2 272.5 107 272.4 106.8 272.3 106.6 272.2 106.3 272.2 106 272.2 105.7 272.3 105.4 272.4 105.2 272.5 105 272.7 104.8 273 104.6 273.2 104.4 273.5 104.3 273.8 104.2 274.1 104.1 274.4 104.1 274.8 104.1 275.2 104.1 275.5 104.2 275.8 104.3 276.1 104.4 276.4 104.6 276.6 104.7 276.8 104.9 277 105.1 277.2 105.4 277.3 105.7 277.4 106 277.4 106.3L276.2 106.3C276.2 106.1 276.1 106 276.1 105.8 276 105.7 275.9 105.5 275.8 105.4 275.7 105.3 275.5 105.2 275.4 105.2 275.2 105.1 275 105.1 274.8 105.1 274.6 105.1 274.4 105.1 274.3 105.2 274.1 105.2 274 105.3 273.9 105.4 273.8 105.5 273.7 105.6 273.6 105.7 273.5 105.8 273.5 106 273.5 106.1 273.5 106.3 273.5 106.4 273.6 106.5 273.7 106.6 273.8 106.7 273.9 106.8 274 106.9 274.2 107 274.4 107 274.6 107.1 274.8 107.1 275 107.2 275.3 107.3 275.6 107.4 275.9 107.5 276.2 107.6 276.4 107.8 276.6 108 276.8 108.2 277 108.4 277.1 108.6 277.2 108.8 277.3 109.1 277.3 109.4 277.3 109.7 277.2 110 277.1 110.2 277 110.4 276.8 110.6 276.5 110.8 276.3 111 276 111.1 275.7 111.2 275.4 111.3 275.1 111.3 274.7 111.3 274.5 111.3 274.2 111.3 274 111.2 273.8 111.2 273.6 111.1 273.4 111 273.2 110.9 273 110.8 272.8 110.7 272.6 110.6 272.5 110.4 272.3 110.3 272.2 110.1 272.1 110 272 109.8 271.9 109.6 271.9 109.4 271.9 109.1L273.1 109.1C273.1 109.3 273.2 109.5 273.2 109.7 273.3 109.9 273.4 110 273.5 110.1 273.6 110.2 273.8 110.3 274 110.3 274.2 110.4 274.4 110.4 274.6 110.4 274.8 110.4 275 110.4 275.1 110.3 275.3 110.3 275.4 110.2 275.5 110.1 275.6 110 275.7 109.9 275.8 109.8 276 109.6 276.1 109.4 276.1 109.3Z" fill="#2A3238"/><path d="M284.5 111.1 283.3 111.1 283.3 108 280.8 108 280.8 111.1 279.6 111.1 279.6 104 280.8 104 280.8 107 283.3 107 283.3 104 284.5 104 284.5 111.1Z" fill="#2A3238"/><path d="M291.5 107.9 288.4 107.9 288.4 110.1 292 110.1 292 111 287.2 111 287.2 104 292 104 292 105 288.5 105 288.5 107 291.6 107 291.6 107.9Z" fill="#2A3238"/><path d="M295.9 110.1 299.4 110.1 299.4 111 294.6 111 294.6 104 295.8 104 295.8 110.1Z" fill="#2A3238"/><path d="M303.4 110.1 306.9 110.1 306.9 111 302.1 111 302.1 104 303.3 104 303.3 110.1Z" fill="#2A3238"/></g></g></g><path d="M21.2412 474.466 236.057 474.466 236.057 513.399 21.2412 513.399Z" fill="#70AD47" fill-rule="evenodd" fill-opacity="0.2"/><path d="M236.057 474.466 629.853 474.466 629.853 513.399 236.057 513.399Z" fill="#70AD47" fill-rule="evenodd" fill-opacity="0.2"/><path d="M21.2412 552.332 236.057 552.332 236.057 591.266 21.2412 591.266Z" fill="#70AD47" fill-rule="evenodd" fill-opacity="0.2"/><path d="M236.057 552.332 629.853 552.332 629.853 591.266 236.057 591.266Z" fill="#70AD47" fill-rule="evenodd" fill-opacity="0.2"/><path d="M21.2412 630.199 236.057 630.199 236.057 669.132 21.2412 669.132Z" fill="#70AD47" fill-rule="evenodd" fill-opacity="0.2"/><path d="M236.057 630.199 629.853 630.199 629.853 669.132 236.057 669.132Z" fill="#70AD47" fill-rule="evenodd" fill-opacity="0.2"/><path d="M21.2412 474.466 629.853 474.466" stroke="#70AD47" stroke-width="1.33333" stroke-linejoin="round" stroke-miterlimit="10" fill="none" fill-rule="evenodd"/><path d="M21.2412 708.066 629.853 708.066" stroke="#70AD47" stroke-width="1.33333" stroke-linejoin="round" stroke-miterlimit="10" fill="none" fill-rule="evenodd"/><text font-family="PlemolJP Console NF,PlemolJP Console NF_MSFontService,sans-serif" font-weight="700" font-size="16" transform="translate(30.8412 456)">編集</text><text font-family="PlemolJP Console NF,PlemolJP Console NF_MSFontService,sans-serif" font-weight="400" font-size="16" transform="translate(245.657 495)">カーソル位置の</text><text font-family="PlemolJP Console NF,PlemolJP Console NF_MSFontService,sans-serif" font-weight="400" font-size="16" transform="translate(363.491 495)">1</text><text font-family="PlemolJP Console NF,PlemolJP Console NF_MSFontService,sans-serif" font-weight="400" font-size="16" transform="translate(371.991 495)">つ前の文字を削除</text><g><text font-family="PlemolJP Console NF,PlemolJP Console NF_MSFontService,sans-serif" font-weight="700" font-size="19" transform="translate(30.8412 497)">Ctrl</text></g><text font-family="PlemolJP Console NF,PlemolJP Console NF_MSFontService,sans-serif" font-weight="400" font-size="19" transform="translate(70.1745 497)">+</text><text font-family="PlemolJP Console NF,PlemolJP Console NF_MSFontService,sans-serif" font-weight="700" font-size="19" transform="translate(80.0078 497)">H</text><text font-family="PlemolJP Console NF,PlemolJP Console NF_MSFontService,sans-serif" font-weight="400" font-size="19" transform="translate(99.6745 497)">,</text><text font-family="PlemolJP Console NF,PlemolJP Console NF_MSFontService,sans-serif" font-weight="700" font-size="19" transform="translate(119.341 497)">Back Space</text><text font-family="PlemolJP Console NF,PlemolJP Console NF_MSFontService,sans-serif" font-weight="400" font-size="16" transform="translate(245.657 534)">カーソル位置の文字を削除</text><g><text font-family="PlemolJP Console NF,PlemolJP Console NF_MSFontService,sans-serif" font-weight="700" font-size="19" transform="translate(30.8412 536)">Ctrl</text></g><text font-family="PlemolJP Console NF,PlemolJP Console NF_MSFontService,sans-serif" font-weight="400" font-size="19" transform="translate(70.1745 536)">+</text><text font-family="PlemolJP Console NF,PlemolJP Console NF_MSFontService,sans-serif" font-weight="700" font-size="19" transform="translate(80.0078 536)">D</text><text font-family="PlemolJP Console NF,PlemolJP Console NF_MSFontService,sans-serif" font-weight="400" font-size="19" transform="translate(99.6745 536)">,</text><text font-family="PlemolJP Console NF,PlemolJP Console NF_MSFontService,sans-serif" font-weight="700" font-size="19" transform="translate(119.341 536)">Delete</text><text font-family="PlemolJP Console NF,PlemolJP Console NF_MSFontService,sans-serif" font-weight="400" font-size="16" transform="translate(245.657 573)">カーソル位置の１つ前から行頭まで削除</text><g><text font-family="PlemolJP Console NF,PlemolJP Console NF_MSFontService,sans-serif" font-weight="700" font-size="19" transform="translate(30.8412 575)">Ctrl</text></g><text font-family="PlemolJP Console NF,PlemolJP Console NF_MSFontService,sans-serif" font-weight="400" font-size="19" transform="translate(70.1745 575)">+</text><text font-family="PlemolJP Console NF,PlemolJP Console NF_MSFontService,sans-serif" font-weight="700" font-size="19" transform="translate(80.0078 575)">U</text><text font-family="PlemolJP Console NF,PlemolJP Console NF_MSFontService,sans-serif" font-weight="400" font-size="16" transform="translate(245.657 612)">カーソル位置から行末まで削除</text><g><text font-family="PlemolJP Console NF,PlemolJP Console NF_MSFontService,sans-serif" font-weight="700" font-size="19" transform="translate(30.8412 614)">Ctrl</text></g><text font-family="PlemolJP Console NF,PlemolJP Console NF_MSFontService,sans-serif" font-weight="400" font-size="19" transform="translate(70.1745 614)">+</text><text font-family="PlemolJP Console NF,PlemolJP Console NF_MSFontService,sans-serif" font-weight="700" font-size="19" transform="translate(80.0078 614)">K</text><text font-family="PlemolJP Console NF,PlemolJP Console NF_MSFontService,sans-serif" font-weight="400" font-size="16" transform="translate(245.657 651)">カーソル位置の１つ前から左方向に</text><text font-family="PlemolJP Console NF,PlemolJP Console NF_MSFontService,sans-serif" font-weight="400" font-size="16" transform="translate(514.991 651)">1</text><text font-family="PlemolJP Console NF,PlemolJP Console NF_MSFontService,sans-serif" font-weight="400" font-size="16" transform="translate(523.491 651)">単語削除</text><g><text font-family="PlemolJP Console NF,PlemolJP Console NF_MSFontService,sans-serif" font-weight="700" font-size="19" transform="translate(30.8412 653)">Ctrl</text></g><text font-family="PlemolJP Console NF,PlemolJP Console NF_MSFontService,sans-serif" font-weight="400" font-size="19" transform="translate(70.1745 653)">+</text><text font-family="PlemolJP Console NF,PlemolJP Console NF_MSFontService,sans-serif" font-weight="700" font-size="19" transform="translate(80.0078 653)">W</text><text font-family="PlemolJP Console NF,PlemolJP Console NF_MSFontService,sans-serif" font-weight="400" font-size="16" transform="translate(245.657 690)">前回削除したテキストをカーソル位置に挿入</text><g><text font-family="PlemolJP Console NF,PlemolJP Console NF_MSFontService,sans-serif" font-weight="700" font-size="19" transform="translate(30.8412 692)">Ctrl</text></g><text font-family="PlemolJP Console NF,PlemolJP Console NF_MSFontService,sans-serif" font-weight="400" font-size="19" transform="translate(70.1745 692)">+</text><text font-family="PlemolJP Console NF,PlemolJP Console NF_MSFontService,sans-serif" font-weight="700" font-size="19" transform="translate(80.0078 692)">Y</text><text font-family="PlemolJP Console NF,PlemolJP Console NF_MSFontService,sans-serif" font-weight="400" font-size="15" transform="translate(714.86 27)">Bash</text><text font-family="PlemolJP Console NF,PlemolJP Console NF_MSFontService,sans-serif" font-weight="400" font-size="15" transform="translate(745.526 27)">ロゴはオフィシャルサイトよりダウンロード</text><text font-family="PlemolJP Console NF,PlemolJP Console NF_MSFontService,sans-serif" font-weight="400" font-size="15" transform="translate(1063.19 27)">https://bashlogo.com/</text><text font-family="PlemolJP Console NF,PlemolJP Console NF_MSFontService,sans-serif" font-weight="400" font-size="15" transform="translate(345.82 74)">コマンドライン編集</text><text font-family="PlemolJP Console NF,PlemolJP Console NF_MSFontService,sans-serif" font-weight="400" font-size="15" transform="translate(345.82 92)">キーボードショートカット</text><text font-family="PlemolJP Console NF,PlemolJP Console NF_MSFontService,sans-serif" font-weight="400" font-size="15" transform="translate(531.82 92)">(</text><text font-family="PlemolJP Console NF,PlemolJP Console NF_MSFontService,sans-serif" font-weight="400" font-size="15" transform="translate(539.487 92)">簡易版</text><text font-family="PlemolJP Console NF,PlemolJP Console NF_MSFontService,sans-serif" font-weight="400" font-size="15" transform="translate(585.987 92)">)</text><path d="M652.85 133.539 866.83 133.539 866.83 172.472 652.85 172.472Z" fill="#70AD47" fill-rule="evenodd" fill-opacity="0.2"/><path d="M866.83 133.539 1261.46 133.539 1261.46 172.472 866.83 172.472Z" fill="#70AD47" fill-rule="evenodd" fill-opacity="0.2"/><path d="M652.85 211.406 866.83 211.406 866.83 259.406 652.85 259.406Z" fill="#70AD47" fill-rule="evenodd" fill-opacity="0.2"/><path d="M866.83 211.406 1261.46 211.406 1261.46 259.406 866.83 259.406Z" fill="#70AD47" fill-rule="evenodd" fill-opacity="0.2"/><path d="M652.85 133.539 1261.46 133.539" stroke="#70AD47" stroke-width="1.33333" stroke-linejoin="round" stroke-miterlimit="10" fill="none" fill-rule="evenodd"/><path d="M652.85 259.406 1261.46 259.406" stroke="#70AD47" stroke-width="1.33333" stroke-linejoin="round" stroke-miterlimit="10" fill="none" fill-rule="evenodd"/><g><text font-family="PlemolJP Console NF,PlemolJP Console NF_MSFontService,sans-serif" font-weight="700" font-size="19" transform="translate(662.45 117)">履歴呼び出し</text></g><text font-family="PlemolJP Console NF,PlemolJP Console NF_MSFontService,sans-serif" font-weight="400" font-size="16" transform="translate(876.43 154)">履歴から前のコマンドを呼び出す</text><g><text font-family="PlemolJP Console NF,PlemolJP Console NF_MSFontService,sans-serif" font-weight="700" font-size="19" transform="translate(662.45 156)">Ctrl</text></g><text font-family="PlemolJP Console NF,PlemolJP Console NF_MSFontService,sans-serif" font-weight="400" font-size="19" transform="translate(701.784 156)">+</text><text font-family="PlemolJP Console NF,PlemolJP Console NF_MSFontService,sans-serif" font-weight="700" font-size="19" transform="translate(711.617 156)">P</text><text font-family="PlemolJP Console NF,PlemolJP Console NF_MSFontService,sans-serif" font-weight="400" font-size="19" transform="translate(731.284 156)">,</text><text font-family="PlemolJP Console NF,PlemolJP Console NF_MSFontService,sans-serif" font-weight="700" font-size="19" transform="translate(750.95 156)">↑</text><text font-family="PlemolJP Console NF,PlemolJP Console NF_MSFontService,sans-serif" font-weight="400" font-size="16" transform="translate(876.43 193)">履歴から次のコマンドを呼び出す</text><g><text font-family="PlemolJP Console NF,PlemolJP Console NF_MSFontService,sans-serif" font-weight="700" font-size="19" transform="translate(662.45 195)">Ctrl</text></g><text font-family="PlemolJP Console NF,PlemolJP Console NF_MSFontService,sans-serif" font-weight="400" font-size="19" transform="translate(701.784 195)">+</text><text font-family="PlemolJP Console NF,PlemolJP Console NF_MSFontService,sans-serif" font-weight="700" font-size="19" transform="translate(711.617 195)">N</text><text font-family="PlemolJP Console NF,PlemolJP Console NF_MSFontService,sans-serif" font-weight="400" font-size="19" transform="translate(731.284 195)">,</text><text font-family="PlemolJP Console NF,PlemolJP Console NF_MSFontService,sans-serif" font-weight="700" font-size="19" transform="translate(750.95 195)">↓</text><text font-family="PlemolJP Console NF,PlemolJP Console NF_MSFontService,sans-serif" font-weight="400" font-size="16" transform="translate(876.43 232)">履歴</text><text font-family="PlemolJP Console NF,PlemolJP Console NF_MSFontService,sans-serif" font-weight="400" font-size="16" transform="translate(910.097 232)">から</text><text font-family="PlemolJP Console NF,PlemolJP Console NF_MSFontService,sans-serif" font-weight="400" font-size="16" transform="translate(943.764 232)">逆</text><text font-family="PlemolJP Console NF,PlemolJP Console NF_MSFontService,sans-serif" font-weight="400" font-size="16" transform="translate(960.597 232)">インクリメンタル</text><text font-family="PlemolJP Console NF,PlemolJP Console NF_MSFontService,sans-serif" font-weight="400" font-size="16" transform="translate(1095.26 232)">検索でコマンドを検</text><text font-family="PlemolJP Console NF,PlemolJP Console NF_MSFontService,sans-serif" font-weight="400" font-size="16" transform="translate(876.43 251)">索する</text><g><text font-family="PlemolJP Console NF,PlemolJP Console NF_MSFontService,sans-serif" font-weight="700" font-size="19" transform="translate(662.45 234)">Ctrl</text></g><text font-family="PlemolJP Console NF,PlemolJP Console NF_MSFontService,sans-serif" font-weight="400" font-size="19" transform="translate(701.784 234)">+</text><text font-family="PlemolJP Console NF,PlemolJP Console NF_MSFontService,sans-serif" font-weight="700" font-size="19" transform="translate(711.617 234)">R</text><path d="M652.85 320.374 866.83 320.374 866.83 359.307 652.85 359.307Z" fill="#70AD47" fill-rule="evenodd" fill-opacity="0.2"/><path d="M866.83 320.374 1261.46 320.374 1261.46 359.307 866.83 359.307Z" fill="#70AD47" fill-rule="evenodd" fill-opacity="0.2"/><path d="M652.85 398.24 866.83 398.24 866.83 437.174 652.85 437.174Z" fill="#70AD47" fill-rule="evenodd" fill-opacity="0.2"/><path d="M866.83 398.24 1261.46 398.24 1261.46 437.174 866.83 437.174Z" fill="#70AD47" fill-rule="evenodd" fill-opacity="0.2"/><path d="M652.85 485.174 866.83 485.174 866.83 524.107 652.85 524.107Z" fill="#70AD47" fill-rule="evenodd" fill-opacity="0.2"/><path d="M866.83 485.174 1261.46 485.174 1261.46 524.107 866.83 524.107Z" fill="#70AD47" fill-rule="evenodd" fill-opacity="0.2"/><path d="M652.85 572.107 866.83 572.107 866.83 611.04 652.85 611.04Z" fill="#70AD47" fill-rule="evenodd" fill-opacity="0.2"/><path d="M866.83 572.107 1261.46 572.107 1261.46 611.04 866.83 611.04Z" fill="#70AD47" fill-rule="evenodd" fill-opacity="0.2"/><path d="M652.85 659.04 866.83 659.04 866.83 707.04 652.85 707.04Z" fill="#70AD47" fill-rule="evenodd" fill-opacity="0.2"/><path d="M866.83 659.04 1261.46 659.04 1261.46 707.04 866.83 707.04Z" fill="#70AD47" fill-rule="evenodd" fill-opacity="0.2"/><path d="M652.85 320.374 1261.46 320.374" stroke="#70AD47" stroke-width="1.33333" stroke-linejoin="round" stroke-miterlimit="10" fill="none" fill-rule="evenodd"/><path d="M652.85 707.04 1261.46 707.04" stroke="#70AD47" stroke-width="1.33333" stroke-linejoin="round" stroke-miterlimit="10" fill="none" fill-rule="evenodd"/><g><text font-family="PlemolJP Console NF,PlemolJP Console NF_MSFontService,sans-serif" font-weight="700" font-size="19" transform="translate(662.45 304)">ファイル名補完・展開</text></g><text font-family="PlemolJP Console NF,PlemolJP Console NF_MSFontService,sans-serif" font-weight="400" font-size="16" transform="translate(876.43 341)">文字列</text><text font-family="PlemolJP Console NF,PlemolJP Console NF_MSFontService,sans-serif" font-weight="400" font-size="16" transform="translate(926.93 341)">word</text><text font-family="PlemolJP Console NF,PlemolJP Console NF_MSFontService,sans-serif" font-weight="400" font-size="16" transform="translate(960.93 341)">にマッチするファイル名に補完</text><g><text font-family="PlemolJP Console NF,PlemolJP Console NF_MSFontService,sans-serif" font-weight="700" font-size="19" transform="translate(662.45 343)">word Tab</text></g><text font-family="PlemolJP Console NF,PlemolJP Console NF_MSFontService,sans-serif" font-weight="400" font-size="16" transform="translate(876.43 380)">補完可能なファイル名候補を一覧表示</text><g><text font-family="PlemolJP Console NF,PlemolJP Console NF_MSFontService,sans-serif" font-weight="700" font-size="19" transform="translate(662.45 382)">Tab Tab</text></g><text font-family="PlemolJP Console NF,PlemolJP Console NF_MSFontService,sans-serif" font-weight="400" font-size="16" transform="translate(876.43 419)">ホームディレクトリのパスに展開</text><g><text font-family="PlemolJP Console NF,PlemolJP Console NF_MSFontService,sans-serif" font-weight="700" font-size="19" transform="translate(662.45 421)">~</text></g><text font-family="PlemolJP Console NF,PlemolJP Console NF_MSFontService,sans-serif" font-weight="400" font-size="16" transform="translate(876.43 458)">任意の文字列を表し、マッチしたファイル名に展</text><text font-family="PlemolJP Console NF,PlemolJP Console NF_MSFontService,sans-serif" font-weight="400" font-size="16" transform="translate(876.43 477)">開</text><g><text font-family="PlemolJP Console NF,PlemolJP Console NF_MSFontService,sans-serif" font-weight="700" font-size="19" transform="translate(662.45 460)">*</text></g><text font-family="PlemolJP Console NF,PlemolJP Console NF_MSFontService,sans-serif" font-weight="400" font-size="16" transform="translate(876.43 506)">1</text><text font-family="PlemolJP Console NF,PlemolJP Console NF_MSFontService,sans-serif" font-weight="400" font-size="16" transform="translate(884.93 506)">文字を表し、マッチしたファイル名に展開</text><g><text font-family="PlemolJP Console NF,PlemolJP Console NF_MSFontService,sans-serif" font-weight="700" font-size="19" transform="translate(662.45 508)">?</text></g><text font-family="PlemolJP Console NF,PlemolJP Console NF_MSFontService,sans-serif" font-weight="400" font-size="16" transform="translate(876.43 545)">いずれかの</text><text font-family="PlemolJP Console NF,PlemolJP Console NF_MSFontService,sans-serif" font-weight="400" font-size="16" transform="translate(960.597 545)">1</text><text font-family="PlemolJP Console NF,PlemolJP Console NF_MSFontService,sans-serif" font-weight="400" font-size="16" transform="translate(969.097 545)">文字にマッチし、マッチしたファイ</text><text font-family="PlemolJP Console NF,PlemolJP Console NF_MSFontService,sans-serif" font-weight="400" font-size="16" transform="translate(876.43 564)">ル名に展開。例</text><text font-family="PlemolJP Console NF,PlemolJP Console NF_MSFontService,sans-serif" font-weight="400" font-size="16" transform="translate(994.264 564)">:a</text><text font-family="PlemolJP Console NF,PlemolJP Console NF_MSFontService,sans-serif" font-weight="400" font-size="16" transform="translate(1011.26 564)">または</text><text font-family="PlemolJP Console NF,PlemolJP Console NF_MSFontService,sans-serif" font-weight="400" font-size="16" transform="translate(1061.76 564)">3</text><text font-family="PlemolJP Console NF,PlemolJP Console NF_MSFontService,sans-serif" font-weight="400" font-size="16" transform="translate(1070.26 564)">にマッチ</text><g><text font-family="PlemolJP Console NF,PlemolJP Console NF_MSFontService,sans-serif" font-weight="700" font-size="19" transform="translate(662.45 547)">[a3]</text></g><text font-family="PlemolJP Console NF,PlemolJP Console NF_MSFontService,sans-serif" font-weight="400" font-size="16" transform="translate(876.43 593)">例</text><text font-family="PlemolJP Console NF,PlemolJP Console NF_MSFontService,sans-serif" font-weight="400" font-size="16" transform="translate(893.264 593)">:a,H,3,8,_</text><text font-family="PlemolJP Console NF,PlemolJP Console NF_MSFontService,sans-serif" font-weight="400" font-size="16" transform="translate(978.264 593)">のどれかにマッチ</text><g><text font-family="PlemolJP Console NF,PlemolJP Console NF_MSFontService,sans-serif" font-weight="700" font-size="19" transform="translate(662.45 595)">[aH38_]</text></g><text font-family="PlemolJP Console NF,PlemolJP Console NF_MSFontService,sans-serif" font-weight="400" font-size="16" transform="translate(876.43 632)">例</text><text font-family="PlemolJP Console NF,PlemolJP Console NF_MSFontService,sans-serif" font-weight="400" font-size="16" transform="translate(893.264 632)">:c</text><text font-family="PlemolJP Console NF,PlemolJP Console NF_MSFontService,sans-serif" font-weight="400" font-size="16" transform="translate(910.264 632)">から</text><text font-family="PlemolJP Console NF,PlemolJP Console NF_MSFontService,sans-serif" font-weight="400" font-size="16" transform="translate(943.93 632)">w</text><text font-family="PlemolJP Console NF,PlemolJP Console NF_MSFontService,sans-serif" font-weight="400" font-size="16" transform="translate(952.43 632)">までのどれか、または</text><text font-family="PlemolJP Console NF,PlemolJP Console NF_MSFontService,sans-serif" font-weight="400" font-size="16" transform="translate(1120.76 632)">3</text><text font-family="PlemolJP Console NF,PlemolJP Console NF_MSFontService,sans-serif" font-weight="400" font-size="16" transform="translate(1129.26 632)">から</text><text font-family="PlemolJP Console NF,PlemolJP Console NF_MSFontService,sans-serif" font-weight="400" font-size="16" transform="translate(1162.93 632)">7</text><text font-family="PlemolJP Console NF,PlemolJP Console NF_MSFontService,sans-serif" font-weight="400" font-size="16" transform="translate(1171.43 632)">までのど</text><text font-family="PlemolJP Console NF,PlemolJP Console NF_MSFontService,sans-serif" font-weight="400" font-size="16" transform="translate(876.43 651)">れかにマッチ</text><g><text font-family="PlemolJP Console NF,PlemolJP Console NF_MSFontService,sans-serif" font-weight="700" font-size="19" transform="translate(662.45 634)">[c</text></g><text font-family="PlemolJP Console NF,PlemolJP Console NF_MSFontService,sans-serif" font-weight="700" font-size="19" transform="translate(682.117 634)">-</text><text font-family="PlemolJP Console NF,PlemolJP Console NF_MSFontService,sans-serif" font-weight="700" font-size="19" transform="translate(691.95 634)">w3</text><text font-family="PlemolJP Console NF,PlemolJP Console NF_MSFontService,sans-serif" font-weight="700" font-size="19" transform="translate(711.617 634)">-</text><text font-family="PlemolJP Console NF,PlemolJP Console NF_MSFontService,sans-serif" font-weight="700" font-size="19" transform="translate(721.45 634)">7]</text><text font-family="PlemolJP Console NF,PlemolJP Console NF_MSFontService,sans-serif" font-weight="400" font-size="16" transform="translate(876.43 680)">複数文字列を展開し、マッチしたファイル名に展</text><text font-family="PlemolJP Console NF,PlemolJP Console NF_MSFontService,sans-serif" font-weight="400" font-size="16" transform="translate(876.43 699)">開。例</text><text font-family="PlemolJP Console NF,PlemolJP Console NF_MSFontService,sans-serif" font-weight="400" font-size="16" transform="translate(926.93 699)">:xxx</text><text font-family="PlemolJP Console NF,PlemolJP Console NF_MSFontService,sans-serif" font-weight="400" font-size="16" transform="translate(960.93 699)">または</text><text font-family="PlemolJP Console NF,PlemolJP Console NF_MSFontService,sans-serif" font-weight="400" font-size="16" transform="translate(1011.43 699)">yyy</text><text font-family="PlemolJP Console NF,PlemolJP Console NF_MSFontService,sans-serif" font-weight="400" font-size="16" transform="translate(1036.93 699)">または</text><text font-family="PlemolJP Console NF,PlemolJP Console NF_MSFontService,sans-serif" font-weight="400" font-size="16" transform="translate(1087.43 699)">zzz</text><text font-family="PlemolJP Console NF,PlemolJP Console NF_MSFontService,sans-serif" font-weight="400" font-size="16" transform="translate(1112.93 699)">にマッチ</text><g><text font-family="PlemolJP Console NF,PlemolJP Console NF_MSFontService,sans-serif" font-weight="700" font-size="19" transform="translate(662.45 682)">{xxx,yyy,zzz}</text></g></g></svg>