<?xml version="1.0" standalone="no"?>
<!DOCTYPE svg PUBLIC "-//W3C//DTD SVG 20010904//EN"
 "http://www.w3.org/TR/2001/REC-SVG-20010904/DTD/svg10.dtd">
<svg version="1.0" xmlns="http://www.w3.org/2000/svg"
 width="170.000000pt" height="190.000000pt" viewBox="0 0 170.000000 190.000000"
 preserveAspectRatio="xMidYMid meet">

<g transform="translate(0.000000,190.000000) scale(0.100000,-0.100000)"
fill="#000000" stroke="none">
<path d="M0 1050 l0 -850 850 0 850 0 0 850 0 850 -850 0 -850 0 0 -850z
m1630 0 l0 -780 -780 0 -780 0 0 780 0 780 780 0 780 0 0 -780z"/>
<path d="M1005 1759 c-291 -17 -471 -32 -479 -40 -6 -5 -10 -25 -10 -45 0 -46
23 -64 83 -64 103 0 529 40 554 51 34 15 43 44 23 73 -19 30 -37 32 -171 25z"/>
<path d="M825 1600 c-33 -4 -92 -8 -131 -9 -39 -1 -86 -4 -103 -7 l-31 -6 0
-109 c0 -90 -3 -109 -15 -109 -10 0 -15 -11 -15 -35 0 -26 9 -45 38 -77 l37
-41 -57 6 -57 5 -6 -41 c-6 -35 -4 -43 15 -59 19 -15 42 -18 149 -18 133 0
443 16 499 25 19 4 39 16 48 30 13 21 14 28 2 52 -12 25 -20 29 -71 33 l-58 5
40 40 c44 42 49 56 27 75 -11 8 -12 18 -5 36 5 14 9 56 9 93 0 60 -3 70 -26
92 -23 22 -34 24 -127 25 -56 1 -129 -2 -162 -6z m113 -121 c3 -29 8 -27 -155
-45 -63 -7 -63 -7 -63 20 0 29 4 30 110 45 93 13 104 11 108 -20z m17 -147
c-6 -5 -38 -30 -72 -56 l-62 -47 -46 36 c-26 19 -51 35 -56 35 -5 0 -9 4 -9 9
0 5 42 13 93 19 125 13 163 14 152 4z"/>
<path d="M920 1002 c-22 -4 -35 -13 -35 -22 0 -21 -81 -26 -104 -7 -26 22 -48
27 -96 20 -28 -3 -45 -11 -45 -19 0 -10 -16 -14 -60 -14 l-59 0 -7 -35 c-9
-52 15 -75 77 -75 38 0 51 -4 59 -19 5 -11 10 -22 10 -25 0 -3 -31 -6 -69 -6
-67 0 -69 -1 -74 -27 -4 -19 1 -37 15 -57 18 -25 20 -37 14 -95 -4 -36 -22
-110 -40 -165 l-34 -98 45 6 c49 6 81 25 101 58 12 22 13 22 9 -10 -5 -45 21
-62 95 -62 49 0 56 -2 51 -17 -6 -14 1 -15 61 -11 54 5 79 13 124 41 l56 35
48 -33 c59 -41 100 -51 140 -34 25 10 29 16 24 39 -7 38 -67 170 -76 170 -4 0
-11 -11 -14 -25 -4 -14 -13 -25 -22 -25 -16 0 -14 7 22 55 12 17 29 45 39 63
15 31 15 35 1 51 -15 16 -14 19 9 29 32 15 32 34 -1 91 -50 86 -75 100 -114
61 -27 -27 -55 -27 -40 -1 7 14 25 22 58 26 107 15 136 37 107 81 -14 22 -23
24 -87 24 -51 0 -74 4 -82 15 -14 18 -59 25 -106 17z m-17 -167 l18 -25 -71 0
c-56 0 -70 3 -70 15 0 19 33 34 75 34 21 0 36 -7 48 -24z m217 -129 c9 -12 6
-16 -23 -21 -27 -5 -37 -13 -42 -32 -7 -31 -20 -20 -30 24 -5 25 -3 32 12 36
37 10 71 7 83 -7z m-240 -11 c0 -12 -17 -15 -90 -15 -49 0 -93 0 -97 -1 -4 0
-9 4 -11 10 -2 6 24 11 65 14 37 2 83 4 101 5 23 1 32 -2 32 -13z m24 -91 c10
-27 7 -31 -19 -26 -16 3 -25 11 -25 23 0 23 35 26 44 3z m-154 -9 c0 -8 -7
-15 -15 -15 -8 0 -15 7 -15 15 0 8 7 15 15 15 8 0 15 -7 15 -15z m160 -130
c-34 -36 -60 -45 -60 -22 0 6 15 19 33 27 24 11 33 23 36 45 3 29 4 29 14 7 9
-19 6 -28 -23 -57z m-110 55 c0 -5 -18 -10 -40 -10 -22 0 -40 5 -40 10 0 6 18
10 40 10 22 0 40 -4 40 -10z m-60 -85 c0 -8 -7 -15 -15 -15 -8 0 -15 7 -15 15
0 8 7 15 15 15 8 0 15 -7 15 -15z"/>
<path d="M27 123 c-1 -1 0 -29 1 -63 4 -73 25 -78 30 -7 2 33 7 47 18 47 10 0
14 -13 14 -51 0 -36 4 -49 13 -46 7 2 12 21 12 48 0 32 4 44 15 44 11 0 15
-12 15 -45 0 -33 4 -45 15 -45 11 0 13 12 11 55 -1 30 -5 57 -8 60 -4 4 -132
8 -136 3z"/>
<path d="M331 121 c-14 -4 -27 -13 -29 -20 -3 -10 5 -12 39 -6 49 8 46 -3 -4
-20 -24 -7 -33 -17 -35 -37 -4 -30 10 -37 77 -36 l43 1 -4 54 c-6 70 -23 82
-87 64z m49 -76 c0 -9 -9 -15 -25 -15 -26 0 -34 15 -12 23 23 10 37 7 37 -8z"/>
<path d="M543 74 c-2 -84 29 -105 33 -22 3 59 22 60 26 2 4 -64 26 -70 30 -8
4 64 26 70 30 8 2 -28 8 -49 16 -52 10 -3 12 11 10 59 l-3 64 -71 0 -70 0 -1
-51z"/>
<path d="M835 105 c-30 -29 -31 -45 -4 -79 31 -39 99 -32 99 11 0 10 -5 10
-24 1 -30 -13 -69 -3 -46 12 8 6 30 10 48 10 38 0 42 20 12 50 -27 27 -56 25
-85 -5z m70 -15 c4 -6 -7 -10 -25 -10 -18 0 -29 4 -25 10 3 6 15 10 25 10 10
0 22 -4 25 -10z"/>
<path d="M1088 123 c-17 -3 -28 -11 -28 -20 0 -13 8 -14 43 -10 l42 6 -29 -22
c-16 -12 -38 -29 -49 -38 -32 -25 -12 -39 54 -39 70 0 79 21 13 31 -21 3 -34
7 -28 8 7 0 26 15 44 31 27 25 30 33 20 45 -12 15 -28 16 -82 8z"/>
<path d="M1315 105 c-30 -29 -31 -45 -4 -79 24 -31 57 -34 89 -8 19 16 22 24
16 55 -11 59 -59 74 -101 32z m70 -40 c0 -25 -4 -30 -25 -30 -16 0 -26 6 -28
18 -6 30 6 49 30 45 18 -2 23 -9 23 -33z"/>
<path d="M1545 75 c1 -30 5 -58 9 -62 4 -4 30 -8 57 -9 l49 -1 0 52 c0 35 -5
57 -15 65 -8 7 -15 11 -16 9 0 -2 -3 -22 -5 -44 -6 -47 -16 -60 -39 -51 -13 4
-15 13 -11 31 7 26 -8 65 -23 65 -5 0 -7 -25 -6 -55z"/>
</g>
</svg>
