<?xml version="1.0" standalone="no"?>
<!DOCTYPE svg PUBLIC "-//W3C//DTD SVG 20010904//EN"
 "http://www.w3.org/TR/2001/REC-SVG-20010904/DTD/svg10.dtd">
<svg version="1.0" xmlns="http://www.w3.org/2000/svg"
 width="290.000000pt" height="290.000000pt" viewBox="0 0 290.000000 290.000000"
 preserveAspectRatio="xMidYMid meet">
<metadata>
Created by potrace 1.14, written by Peter Selinger 2001-2017
</metadata>
<g transform="translate(0.000000,290.000000) scale(0.100000,-0.100000)"
fill="#000000" stroke="none">
<path d="M1468 2750 c-64 -11 -144 -42 -234 -90 -142 -75 -192 -124 -250 -244
-24 -49 -44 -94 -44 -100 0 -7 -17 -10 -43 -8 l-43 4 7 56 c4 32 8 74 8 95 1
34 -1 38 -21 35 -16 -2 -27 -16 -40 -48 l-17 -45 0 53 c-1 38 -5 54 -17 59
-20 8 -35 -8 -44 -49 l-7 -33 -9 34 c-11 40 -38 61 -55 44 -6 -6 -13 -39 -16
-73 l-6 -62 -29 31 c-16 17 -36 31 -44 31 -33 0 -10 -58 64 -162 27 -38 32
-54 27 -77 -4 -18 -1 -34 7 -42 7 -8 14 -41 15 -77 2 -75 47 -183 85 -203 12
-6 24 -13 26 -14 2 -1 -31 -58 -71 -126 -98 -164 -111 -191 -133 -279 -14 -56
-19 -111 -19 -215 0 -127 3 -147 27 -214 48 -132 184 -303 300 -376 42 -26 48
-34 48 -64 0 -18 4 -50 9 -70 5 -20 15 -61 21 -91 6 -30 21 -81 35 -113 20
-50 21 -57 7 -51 -107 45 -204 53 -298 25 -74 -22 -144 -63 -144 -85 0 -31 27
-35 246 -37 291 -1 281 -1 288 17 3 8 -5 37 -19 64 -31 61 -75 238 -75 301 l0
46 53 -14 c133 -36 187 -41 318 -33 111 8 158 15 231 36 14 4 15 0 7 -36 -13
-58 -75 -214 -110 -277 -32 -57 -36 -85 -16 -102 9 -7 92 -10 256 -10 212 1
244 3 262 18 20 16 21 19 6 48 -22 41 -54 60 -134 79 -84 20 -200 13 -266 -15
-51 -22 -57 -17 -28 20 40 52 93 184 116 292 3 15 11 27 18 27 18 0 88 39 115
63 21 20 23 20 35 3 11 -15 18 -16 33 -8 15 8 28 4 61 -19 50 -33 125 -69 134
-63 11 6 73 117 104 184 17 35 63 130 104 210 40 80 81 166 92 191 18 46 18
47 -4 66 -29 26 -104 73 -116 73 -21 0 -30 26 -20 65 21 91 29 611 10 684 -6
20 -13 63 -17 96 -25 212 -152 409 -316 492 -139 70 -343 107 -470 83z m-568
-571 c-52 -180 -74 -239 -90 -239 -29 1 -61 67 -73 152 -6 36 -5 37 23 31 26
-5 29 -2 35 30 4 20 14 42 23 50 22 19 95 58 100 53 2 -2 -6 -37 -18 -77z"/>
</g>
</svg>
