<?xml version="1.0" standalone="no"?>
<!DOCTYPE svg PUBLIC "-//W3C//DTD SVG 20010904//EN"
 "http://www.w3.org/TR/2001/REC-SVG-20010904/DTD/svg10.dtd">
<svg version="1.0" xmlns="http://www.w3.org/2000/svg"
 width="2483.000000pt" height="2483.000000pt" viewBox="0 0 2483.000000 2483.000000"
 preserveAspectRatio="xMidYMid meet">
<metadata>
Created by potrace 1.14, written by Peter Selinger 2001-2017
</metadata>
<g transform="translate(0.000000,2483.000000) scale(0.100000,-0.100000)"
fill="#000000" stroke="none">
<path d="M13375 24818 c-22 -4 -60 -10 -85 -13 -25 -4 -64 -10 -87 -15 -23 -4
-87 -8 -142 -8 -82 -1 -116 -7 -191 -32 -52 -17 -122 -32 -162 -35 -52 -4 -87
-13 -134 -36 -35 -17 -75 -31 -89 -29 -93 7 -167 -3 -213 -31 -19 -10 -79 -35
-135 -55 -56 -19 -116 -43 -133 -53 -17 -10 -52 -21 -78 -24 -117 -15 -807
-322 -884 -394 -46 -43 -94 -69 -182 -96 -47 -15 -105 -38 -130 -52 -25 -14
-143 -75 -263 -135 -120 -60 -246 -130 -280 -156 -76 -57 -108 -73 -222 -113
-117 -41 -158 -66 -237 -143 -78 -76 -71 -70 -292 -243 -98 -76 -199 -164
-225 -194 -89 -107 -106 -123 -171 -166 -73 -47 -93 -65 -166 -151 -91 -104
-100 -117 -164 -224 -35 -58 -75 -121 -90 -140 -29 -39 -150 -282 -150 -302 0
-7 -9 -26 -20 -43 -24 -34 -50 -88 -80 -165 -24 -60 -69 -140 -79 -140 -4 0
-14 -19 -23 -43 -8 -24 -56 -117 -106 -206 -95 -171 -116 -220 -177 -414 -20
-65 -48 -139 -62 -164 -25 -44 -93 -230 -174 -473 -62 -187 -80 -252 -85 -315
-3 -33 -7 -73 -9 -88 -5 -32 -86 -250 -150 -407 -27 -67 -49 -141 -59 -205
-10 -55 -26 -136 -38 -180 -11 -44 -22 -89 -24 -100 -3 -19 -54 -214 -127
-496 -20 -75 -41 -177 -47 -225 -13 -112 -20 -133 -88 -274 -30 -63 -65 -144
-77 -180 -12 -36 -50 -126 -83 -200 -34 -75 -74 -186 -91 -250 -50 -193 -106
-329 -172 -419 -29 -41 -32 -43 -72 -38 -47 6 -83 17 -142 43 -22 10 -43 17
-46 16 -7 -1 -155 151 -207 215 -23 28 -63 89 -88 135 -26 45 -59 106 -74 133
-15 28 -28 52 -28 55 1 14 -67 220 -83 258 -11 23 -22 57 -25 75 -23 132 -40
201 -66 257 -31 70 -33 83 -43 320 -10 227 -13 370 -7 412 5 45 -5 46 187 -18
115 -38 139 -42 212 -41 76 2 84 4 113 32 57 55 51 20 75 435 8 134 25 187 78
240 54 54 177 245 217 336 79 180 94 257 94 495 1 120 4 160 15 173 12 14 15
89 17 429 1 227 4 432 8 457 6 43 9 61 20 120 13 74 28 123 52 170 23 46 83
262 98 354 8 47 62 259 92 356 25 83 35 166 37 305 2 128 -59 232 -178 303
-127 75 -232 39 -368 -129 -59 -73 -71 -120 -82 -314 -3 -56 -7 -110 -9 -120
-2 -11 -7 -53 -11 -94 -4 -41 -15 -87 -25 -105 -25 -43 -39 -101 -45 -187 -4
-60 -13 -90 -45 -156 -41 -84 -53 -125 -53 -180 1 -18 -1 -33 -4 -33 -6 0 -72
49 -98 73 -87 79 -170 89 -291 32 -87 -40 -120 -61 -242 -152 -46 -35 -89 -63
-97 -63 -7 0 -31 -16 -52 -36 -21 -20 -51 -41 -68 -47 -63 -21 -111 -66 -180
-168 -58 -86 -137 -160 -211 -197 -103 -52 -99 -41 -100 -296 0 -146 5 -250
14 -306 8 -47 15 -157 17 -245 1 -88 7 -178 13 -199 11 -37 108 -210 139 -247
20 -24 43 -115 44 -171 1 -33 -9 -69 -34 -125 -40 -88 -49 -133 -49 -236 0
-105 15 -149 64 -191 23 -20 46 -36 52 -36 20 0 137 -60 133 -67 -39 -67 -56
-129 -62 -224 -9 -147 -9 -268 0 -389 12 -156 13 -172 20 -335 7 -159 9 -171
50 -280 14 -38 34 -104 45 -146 10 -41 36 -113 58 -160 22 -46 54 -115 71
-154 18 -38 45 -91 62 -117 17 -25 35 -64 41 -85 30 -112 208 -413 298 -503
128 -129 198 -182 335 -254 84 -44 145 -90 145 -107 0 -4 -25 -34 -55 -66 -30
-32 -61 -74 -69 -93 -8 -19 -27 -66 -42 -105 -33 -82 -60 -128 -117 -199 -23
-28 -78 -112 -121 -186 -44 -74 -96 -157 -116 -185 -20 -27 -65 -102 -100
-165 -35 -63 -98 -171 -141 -240 -42 -69 -111 -194 -152 -278 -81 -165 -113
-219 -193 -327 -29 -38 -64 -95 -79 -125 -15 -30 -64 -108 -109 -175 -79 -116
-121 -192 -148 -265 -7 -19 -35 -69 -63 -110 -59 -87 -81 -131 -124 -255 -18
-49 -45 -110 -61 -136 -59 -97 -118 -266 -145 -420 -3 -14 -14 -55 -25 -90
-15 -50 -60 -229 -74 -294 -5 -25 -30 -96 -56 -160 -16 -38 -31 -86 -34 -105
-3 -19 -17 -89 -32 -155 -38 -175 -42 -204 -48 -370 -7 -173 -9 -189 -42 -310
-23 -88 -28 -123 -39 -290 -3 -44 -7 -98 -9 -120 -2 -22 -7 -76 -11 -120 -4
-44 -9 -87 -10 -96 -24 -129 -24 -399 0 -519 11 -55 19 -227 30 -655 5 -176 9
-211 31 -290 15 -49 28 -108 31 -130 19 -177 35 -259 74 -380 11 -33 37 -133
59 -222 22 -89 67 -235 100 -325 34 -90 84 -233 112 -318 61 -190 61 -190 164
-372 46 -80 84 -150 84 -155 0 -4 6 -20 14 -35 8 -14 19 -42 25 -61 7 -20 36
-63 64 -96 113 -131 162 -193 170 -214 4 -12 32 -46 62 -77 48 -51 145 -188
145 -205 0 -4 20 -36 45 -71 25 -35 59 -93 75 -128 27 -62 93 -167 123 -197 7
-8 68 -81 136 -164 68 -82 129 -154 135 -160 6 -5 24 -26 40 -45 15 -19 76
-84 135 -145 59 -60 148 -157 197 -215 49 -58 110 -125 135 -150 76 -74 235
-199 292 -229 56 -30 60 -32 197 -151 228 -198 303 -254 376 -282 23 -8 132
-78 243 -154 247 -171 296 -202 328 -206 l26 -3 4 -205 c8 -416 13 -516 29
-572 5 -16 8 -30 19 -81 3 -12 18 -60 34 -107 26 -74 36 -116 55 -230 6 -31
12 -73 26 -180 6 -46 13 -87 16 -91 2 -4 6 -38 9 -76 6 -90 15 -130 64 -308
23 -82 44 -163 47 -180 3 -16 9 -46 14 -65 5 -19 12 -52 16 -74 11 -73 73
-286 115 -393 68 -176 97 -265 104 -313 8 -51 19 -75 50 -110 15 -15 32 -58
45 -110 12 -47 35 -108 51 -136 16 -28 29 -61 29 -73 0 -30 28 -82 94 -174 31
-42 56 -84 56 -92 0 -27 -29 -28 -69 -2 -23 15 -60 28 -92 32 -30 3 -112 24
-184 47 -97 31 -136 48 -155 68 -33 37 -184 106 -236 108 -23 2 -88 18 -144
37 -181 62 -303 89 -455 101 -47 3 -90 13 -105 22 -28 19 -132 22 -260 8 -69
-8 -83 -6 -170 22 -52 17 -115 33 -140 37 -50 8 -161 8 -200 0 -13 -2 -42 -7
-64 -11 -22 -3 -43 -7 -47 -9 -3 -3 -48 -7 -100 -10 -159 -9 -198 -15 -282
-44 -81 -28 -97 -32 -247 -67 -144 -33 -436 -115 -520 -146 -126 -45 -298
-129 -429 -208 -129 -79 -132 -80 -181 -104 -38 -18 -58 -34 -193 -158 -48
-45 -95 -94 -103 -110 -22 -42 -17 -184 8 -240 49 -109 103 -129 383 -143 61
-3 128 -7 150 -10 148 -16 222 -19 390 -17 484 6 813 6 840 0 53 -13 128 -19
190 -17 33 1 173 1 310 0 470 -5 550 -5 655 4 58 4 258 9 445 9 187 1 345 4
351 8 23 15 346 10 372 -6 14 -9 148 -20 232 -20 83 0 280 13 290 19 9 6 143
16 199 16 59 0 84 10 120 48 66 70 84 191 45 299 -29 78 -160 342 -190 382
-82 108 -276 579 -289 702 -15 133 -59 303 -105 404 -15 34 -30 83 -34 110
-10 82 -54 248 -80 306 -14 31 -28 82 -31 114 -3 33 -8 70 -10 84 -3 14 -7 48
-11 75 -3 28 -10 68 -16 90 -5 22 -12 49 -15 60 -3 11 -8 61 -12 110 -5 60
-14 103 -28 130 -33 64 -50 143 -52 246 -3 118 -15 215 -43 349 -21 95 -23
129 -21 364 1 142 4 261 8 264 3 3 51 -14 108 -37 190 -79 437 -158 582 -186
22 -5 47 -10 55 -11 62 -13 241 -33 316 -35 44 -2 56 -7 88 -39 36 -37 94 -63
211 -96 57 -16 112 -21 280 -29 192 -9 224 -14 299 -39 39 -13 98 -27 131 -30
104 -11 150 -17 165 -21 53 -14 125 -19 275 -19 195 0 298 6 595 38 70 8 284
14 542 15 235 1 436 4 447 6 10 2 34 6 52 9 19 3 45 8 59 11 69 15 122 17 479
20 379 3 408 5 571 39 13 3 40 13 60 23 19 9 59 18 88 20 29 1 62 9 75 17 12
7 47 17 77 20 30 4 84 16 120 27 53 16 89 19 185 17 l120 -3 0 -90 c0 -77 -4
-98 -27 -145 -14 -30 -29 -73 -32 -94 -4 -22 -24 -80 -45 -130 -55 -129 -70
-178 -82 -265 -10 -71 -31 -129 -78 -210 -11 -19 -25 -46 -31 -60 -6 -14 -20
-44 -32 -66 -12 -23 -22 -64 -24 -95 -1 -30 -3 -60 -3 -67 -1 -6 -8 -19 -16
-27 -9 -8 -45 -89 -81 -178 -36 -90 -69 -172 -73 -183 -12 -27 -14 -31 -88
-250 -38 -112 -94 -253 -138 -343 -41 -84 -82 -178 -91 -209 -16 -55 -138
-313 -166 -351 -7 -9 -25 -25 -40 -34 -20 -14 -29 -31 -38 -75 -14 -68 -29
-98 -76 -160 -19 -25 -61 -98 -94 -163 -32 -65 -83 -162 -112 -216 -50 -95
-52 -102 -53 -176 0 -72 3 -81 51 -174 46 -89 55 -101 99 -123 38 -20 65 -26
129 -27 78 -2 100 -8 158 -40 30 -16 76 -20 128 -9 44 9 45 9 100 0 71 -11
510 -9 555 4 60 16 146 21 391 25 122 2 226 6 231 9 43 27 446 34 1328 23 99
-1 203 2 230 7 86 14 108 14 165 3 55 -11 573 -14 655 -3 23 3 62 1 87 -4 151
-28 467 -31 569 -5 99 25 168 64 235 130 96 97 101 146 35 338 -24 71 -96 215
-127 256 -35 45 -233 209 -322 267 -41 26 -102 69 -137 95 -65 49 -101 61
-220 75 -27 4 -147 31 -265 61 -118 31 -226 58 -239 60 -14 3 -28 7 -32 10 -4
2 -27 8 -51 13 -24 5 -74 17 -113 25 -38 9 -88 18 -110 21 -22 3 -56 8 -75 12
-19 3 -235 8 -480 10 -245 2 -472 4 -505 5 -71 2 -214 -9 -306 -23 -36 -5 -76
-11 -90 -13 -31 -4 -84 -14 -179 -33 -41 -8 -86 -17 -100 -19 -35 -6 -90 -15
-120 -21 -103 -18 -179 -46 -266 -96 -33 -19 -99 -47 -149 -62 -49 -16 -179
-73 -289 -128 -156 -78 -200 -96 -207 -86 -5 8 -9 18 -9 22 0 12 37 82 76 144
20 30 58 101 84 157 31 64 65 119 95 151 41 44 71 89 135 200 9 17 31 53 48
81 18 28 32 54 32 58 0 7 51 88 61 96 23 19 90 152 101 199 7 33 32 88 62 136
27 44 62 109 77 145 50 119 127 324 144 385 38 137 140 418 198 545 61 136
135 407 152 565 4 33 9 67 10 76 2 9 6 40 10 70 8 69 32 110 70 122 17 5 41
18 55 27 76 52 128 73 200 80 49 5 126 25 220 58 80 28 174 56 209 63 53 10
70 19 105 55 31 32 57 47 102 59 105 30 138 43 270 103 71 33 149 66 174 73
50 14 261 134 301 170 25 24 108 87 163 124 16 11 41 29 56 40 15 11 54 39 86
62 33 23 70 52 84 65 49 46 452 337 544 392 66 40 170 113 272 192 45 35 108
79 140 98 55 32 94 66 94 84 1 4 60 49 133 101 l132 93 -52 -7 c-34 -4 -53 -3
-53 3 0 6 35 42 78 81 43 39 83 81 89 93 6 13 24 52 41 88 16 36 42 81 59 100
36 42 212 322 268 425 22 41 69 108 104 148 81 92 130 174 178 295 20 54 48
115 62 137 14 22 60 119 103 215 43 96 88 194 99 218 69 149 184 475 234 660
29 110 95 284 141 374 8 15 14 29 13 30 -2 2 3 14 11 27 7 14 14 50 16 80 1
31 3 61 3 68 1 6 38 62 83 125 132 183 218 335 305 538 65 151 141 389 167
520 2 14 10 50 16 80 6 30 13 75 16 100 2 25 6 54 9 65 17 82 25 396 13 535
-12 137 -19 207 -23 231 -3 13 -7 41 -11 64 -3 22 -12 74 -20 115 -31 154 -26
227 32 452 14 57 28 114 31 128 2 13 13 63 24 110 50 211 86 401 88 465 1 39
-5 111 -14 160 -13 76 -15 145 -10 437 3 190 8 357 10 369 3 13 7 41 10 64 3
22 8 47 10 55 10 40 16 134 17 269 0 82 5 173 9 203 5 29 11 87 13 128 3 41 8
120 11 175 3 55 8 118 11 140 10 84 14 902 5 980 -13 98 -26 583 -21 760 5
206 3 638 -5 910 -4 138 -8 309 -10 380 -2 72 -6 141 -9 155 -3 14 -7 68 -11
120 -11 185 -16 213 -55 305 -21 50 -41 106 -44 125 -11 72 -22 150 -31 225
-4 28 -8 61 -10 75 -2 14 -7 48 -10 75 -4 28 -10 66 -15 85 -11 42 -36 219
-45 310 -6 59 -28 220 -40 295 -14 82 -37 205 -46 244 -5 24 -12 76 -14 115
-11 163 -30 252 -75 351 -48 106 -62 158 -64 251 -1 49 -6 66 -27 91 -16 19
-43 84 -69 165 -24 73 -58 160 -76 193 -18 33 -42 103 -54 155 -27 120 -52
201 -81 265 -13 28 -24 52 -24 55 -1 3 -9 23 -19 45 -10 22 -33 79 -52 127
-18 47 -59 127 -89 177 -31 51 -68 113 -82 139 -47 84 -106 178 -179 284 -38
57 -81 130 -94 163 -30 74 -78 152 -114 185 -15 14 -59 68 -98 120 -40 52 -77
100 -83 107 -7 6 -64 78 -128 160 -86 109 -129 156 -166 179 -27 17 -81 59
-118 95 -38 36 -100 86 -139 112 -39 26 -90 71 -113 100 -23 29 -67 68 -97 88
-30 20 -107 83 -170 140 -163 147 -272 222 -372 259 -46 16 -89 30 -97 30 -21
0 -185 71 -248 108 -32 19 -83 54 -113 78 -128 104 -218 146 -554 258 -197 65
-256 82 -357 102 -12 2 -122 38 -245 78 -123 41 -261 85 -308 97 -47 12 -123
39 -170 59 -97 42 -151 57 -230 64 -30 3 -68 8 -85 11 -16 3 -64 13 -105 21
-41 8 -102 16 -135 18 -33 2 -88 9 -122 17 -45 9 -73 10 -105 3 -49 -11 -102
1 -122 27 -23 32 -57 40 -169 41 -62 0 -144 -2 -183 -5 -38 -2 -93 -1 -121 3
-28 5 -86 12 -130 16 -105 9 -648 11 -698 2z"/>
</g>
</svg>
